<?xml version="1.0" standalone="no"?>
<!DOCTYPE svg PUBLIC "-//W3C//DTD SVG 20010904//EN"
 "http://www.w3.org/TR/2001/REC-SVG-20010904/DTD/svg10.dtd">
<svg version="1.0" xmlns="http://www.w3.org/2000/svg"
 width="275.000000pt" height="310.000000pt" viewBox="0 0 275.000000 310.000000"
 preserveAspectRatio="xMidYMid meet">

<g transform="translate(0.000000,310.000000) scale(0.100000,-0.100000)"
fill="#000000" stroke="none">
<path d="M487 3080 c-217 -28 -413 -212 -467 -440 -19 -78 -15 -183 14 -382
14 -95 28 -236 31 -313 6 -124 4 -161 -21 -320 -24 -156 -28 -210 -28 -400 0
-164 4 -243 17 -310 9 -49 25 -153 36 -230 22 -157 41 -224 78 -273 69 -92
230 -143 609 -192 249 -32 556 -89 709 -131 199 -54 298 -70 480 -76 177 -6
264 5 410 53 215 70 325 176 355 342 15 86 4 300 -23 432 -17 84 -21 142 -21
285 0 177 7 253 45 490 27 164 36 465 18 576 -7 46 -13 122 -12 169 1 46 -1
88 -3 92 -3 5 -7 36 -9 70 -2 33 -7 63 -12 67 -12 9 -72 132 -61 125 5 -4 3 7
-6 24 -9 17 -31 40 -50 52 -19 11 -46 34 -59 49 -25 30 -77 68 -77 57 0 -4 -9
-1 -21 7 -17 13 -25 13 -45 2 -21 -11 -35 -10 -82 2 -31 8 -61 19 -66 24 -15
14 -42 11 -56 -6 -7 -8 -18 -15 -24 -14 -7 0 -6 2 2 6 6 2 12 10 12 16 0 6
-16 -4 -35 -23 -30 -29 -36 -32 -52 -19 -9 8 -14 9 -11 4 4 -6 -2 -11 -13 -11
-10 0 -19 3 -19 7 0 3 -18 3 -41 -1 -32 -6 -39 -5 -35 6 3 8 1 14 -4 14 -6 0
-10 -6 -10 -14 0 -8 -5 -18 -11 -22 -7 -4 -9 0 -5 14 6 18 4 20 -16 16 -59
-13 -79 -13 -72 -1 4 7 -8 -1 -26 -18 -18 -16 -29 -23 -24 -15 4 8 9 24 11 35
1 11 -1 14 -3 8 -3 -7 -12 -13 -20 -13 -8 0 -14 -5 -14 -12 0 -6 -3 -8 -6 -5
-4 4 -1 13 6 22 11 13 10 14 -6 9 -27 -10 -74 -55 -68 -66 7 -11 -15 -40 -25
-33 -4 2 -8 -3 -8 -11 0 -10 4 -11 11 -4 15 15 26 12 20 -5 -4 -8 -14 -15 -23
-16 -12 0 -12 -2 4 -9 14 -6 15 -9 5 -10 -13 0 -13 -2 1 -13 13 -10 14 -15 4
-24 -8 -7 -23 -10 -35 -8 -25 5 -52 -4 -45 -15 3 -5 0 -12 -7 -16 -7 -4 -10
-4 -6 1 4 4 -4 16 -18 27 -19 15 -28 17 -38 8 -10 -8 -16 -8 -21 0 -3 6 -11 8
-16 5 -5 -4 -17 -1 -26 5 -14 8 -14 10 -3 9 8 -1 24 -1 35 0 l20 2 -20 11
c-11 6 -24 16 -28 22 -6 7 -7 4 -3 -6 3 -10 1 -18 -4 -18 -6 0 -10 5 -10 10 0
6 -12 3 -27 -6 -19 -11 -22 -11 -10 -1 21 18 22 31 1 23 -8 -3 -27 -3 -41 0
-19 5 -22 9 -11 16 8 6 5 7 -12 2 -14 -4 -34 -7 -45 -6 -20 1 -20 1 -1 -14 17
-12 17 -14 4 -14 -9 0 -20 -4 -23 -10 -4 -6 1 -7 12 -4 15 5 16 4 3 -5 -8 -6
-24 -8 -35 -5 -16 4 -17 3 -5 -5 15 -11 8 -15 -21 -12 -9 1 -19 -5 -22 -13 -4
-9 -3 -15 1 -13 7 2 12 -6 12 -24 0 -5 -4 -7 -10 -4 -5 3 -10 0 -10 -8 0 -8
-7 -18 -16 -21 -9 -4 -14 -9 -11 -13 4 -3 2 -12 -4 -19 -8 -9 -5 -11 10 -7 12
3 21 1 21 -4 0 -5 -10 -9 -22 -8 -13 1 -30 -4 -39 -12 -14 -12 -17 -12 -23 2
-3 9 -2 13 3 10 5 -3 13 0 18 7 14 23 11 34 -9 34 -17 0 -17 -2 -4 -12 22 -15
8 -26 -15 -11 -14 9 -21 9 -30 0 -9 -9 -6 -11 12 -7 l24 6 -25 -22 -25 -21 25
11 c22 11 22 9 -7 -19 -18 -17 -37 -31 -43 -31 -7 0 -10 -6 -8 -12 8 -24 38
-19 62 9 19 21 24 24 22 10 -1 -10 -9 -23 -17 -28 -8 -5 -9 -9 -4 -10 6 0 -3
-5 -19 -10 -20 -5 -34 -4 -43 3 -7 6 -13 7 -13 4 0 -4 -10 0 -22 8 -12 9 -31
16 -41 16 -10 0 -16 4 -13 8 2 4 -4 9 -15 9 -17 2 -15 -4 15 -37 45 -50 60
-104 60 -215 0 -105 -15 -142 -72 -179 -124 -80 -273 -50 -347 68 -27 44 -30
58 -30 130 0 55 5 90 16 110 15 27 15 30 -2 47 -11 11 -28 19 -39 19 -11 0
-20 3 -20 8 0 4 -15 12 -34 18 l-33 10 32 -31 c41 -38 52 -88 35 -162 -20 -91
-85 -143 -178 -143 -41 0 -99 51 -107 94 -9 43 28 138 72 186 18 21 30 40 26
42 -4 3 -2 3 4 2 7 -2 23 1 35 6 19 7 19 9 5 9 -10 1 -16 5 -13 10 4 5 -9 6
-29 1 -20 -5 -33 -4 -29 1 3 5 -4 9 -16 9 -26 0 -60 17 -60 30 0 6 9 5 20 -2
14 -9 29 -10 60 -2 44 12 49 9 23 -13 -16 -13 -16 -13 5 -3 12 6 22 15 22 20
0 4 13 11 30 15 16 4 32 11 35 16 13 19 27 8 21 -16 -5 -20 -3 -25 14 -25 11
0 21 -4 21 -10 1 -5 2 -14 3 -19 0 -5 5 -13 10 -18 5 -4 6 -3 3 3 -10 17 27
46 49 38 16 -6 16 -4 -4 15 -12 12 -20 26 -17 32 4 5 1 9 -6 9 -8 0 -9 3 0 13
6 8 7 18 3 22 -4 5 -2 5 4 2 17 -10 42 22 25 32 -14 9 -61 2 -61 -9 0 -4 -7
-10 -14 -13 -11 -4 -13 -1 -10 11 5 15 4 15 -8 2 -13 -16 -47 -15 -61 1 -4 5
-4 7 0 4 3 -3 17 4 29 16 12 11 24 16 28 11 6 -10 66 -4 66 7 0 4 -10 7 -22 6
-30 -3 -49 5 -42 16 3 5 16 6 29 3 13 -3 26 0 30 7 5 8 4 10 -4 5 -6 -4 -18
-2 -26 4 -8 6 -20 8 -26 4 -7 -4 -9 -3 -6 3 4 7 -10 9 -38 7 -25 -2 -45 1 -45
6 0 6 6 10 13 10 8 0 7 4 -3 10 -21 14 -30 12 -24 -5 5 -11 -2 -13 -33 -9 -21
2 -32 2 -26 -2 9 -4 10 -11 3 -24 -7 -13 -6 -20 3 -23 6 -2 0 -4 -15 -4 -16 0
-28 3 -28 8 0 5 -7 9 -15 9 -8 0 -14 -6 -13 -12 2 -7 -1 -12 -7 -11 -5 1 -11
-10 -11 -23 -3 -34 -32 -54 -62 -43 -15 6 -21 5 -17 -1 3 -6 12 -10 20 -10 8
0 16 -4 20 -9 3 -6 -4 -8 -15 -6 -11 2 -20 0 -20 -6 0 -5 -5 -9 -11 -9 -5 0
-7 5 -3 12 5 8 2 9 -9 5 -13 -5 -17 -1 -17 14 0 11 -3 18 -7 16 -18 -11 -12
76 7 120 11 25 20 51 20 57 0 6 27 39 59 71 72 73 87 85 95 78 3 -3 13 0 23 8
15 12 16 12 8 -1 -7 -12 -4 -11 17 2 14 10 47 22 72 29 28 7 51 20 61 35 15
24 55 34 55 14 0 -15 26 -12 40 5 13 15 71 21 69 8 -3 -21 3 -22 31 -8 32 17
66 21 38 4 -26 -14 -22 -24 10 -26 15 -1 42 -5 61 -9 19 -4 31 -3 28 2 -8 13
15 41 38 46 34 8 -276 6 -338 -2z m1423 -188 c0 -4 -9 -13 -20 -20 -24 -15
-26 -9 -4 12 17 18 24 20 24 8z m-49 -145 c-10 -9 -11 -8 -5 6 3 10 9 15 12
12 3 -3 0 -11 -7 -18z m-1516 -17 c-6 -9 -9 -9 -16 1 -10 17 0 34 13 21 6 -6
7 -16 3 -22z m1485 10 c0 -5 -12 -10 -27 -9 l-28 1 25 8 c14 4 26 8 28 9 1 1
2 -3 2 -9z m-1438 -12 c-9 -9 -15 -9 -24 0 -9 9 -7 12 12 12 19 0 21 -3 12
-12z m46 -12 c-2 -1 -13 -9 -24 -19 -19 -16 -22 -16 -28 -2 -3 9 -2 14 3 11 5
-3 11 1 15 9 3 8 12 12 21 9 9 -4 15 -7 13 -8z m822 -21 c7 -8 8 -15 2 -15 -5
0 -15 7 -22 15 -7 8 -8 15 -2 15 5 0 15 -7 22 -15z m495 5 c4 -6 3 -10 -2 -9
-4 1 -10 1 -13 -1 -16 -6 -50 -9 -50 -5 0 6 38 23 52 24 4 1 10 -4 13 -9z
m-1485 -10 c0 -5 -4 -10 -10 -10 -5 0 -10 5 -10 10 0 6 5 10 10 10 6 0 10 -4
10 -10z m1209 -44 c14 -8 45 -28 69 -46 77 -56 130 -209 102 -294 -6 -20 -15
-63 -20 -96 -5 -33 -18 -76 -30 -95 -29 -47 -96 -85 -164 -92 -102 -11 -184
55 -253 202 -24 52 -28 72 -28 155 0 78 4 103 22 139 12 24 19 49 16 54 -3 6
-1 7 4 4 6 -4 16 0 22 7 10 11 8 17 -6 25 -10 6 -13 11 -7 11 5 0 15 -5 21
-11 8 -8 19 -5 40 11 67 49 148 59 212 26z m151 20 c0 -3 -4 -8 -10 -11 -5 -3
-10 -1 -10 4 0 6 5 11 10 11 6 0 10 -2 10 -4z m-446 -104 c3 -5 -1 -9 -9 -9
-8 0 -12 4 -9 9 3 4 7 8 9 8 2 0 6 -4 9 -8z m-772 -588 c46 -15 168 -96 168
-111 0 -5 7 -16 14 -26 14 -18 16 -18 56 3 69 35 173 53 236 40 94 -20 207
-108 241 -187 7 -18 15 -33 17 -33 2 0 33 14 70 30 163 74 276 77 404 10 183
-95 239 -181 257 -390 3 -47 15 -121 25 -166 34 -146 43 -250 37 -434 -9 -294
-41 -375 -160 -408 -77 -22 -428 22 -552 69 -58 22 -127 87 -150 143 -8 18
-21 75 -29 126 -8 51 -27 120 -41 154 l-26 62 -152 17 c-188 20 -222 30 -268
76 -28 28 -41 54 -59 122 l-24 86 -111 11 c-133 12 -196 35 -220 82 -20 39
-40 244 -40 420 0 121 1 127 34 197 38 82 54 99 108 119 42 15 91 11 165 -12z"/>
<path d="M1120 3076 c-3 -2 -24 -7 -48 -11 -69 -10 -111 -34 -44 -26 6 1 12
-3 12 -8 0 -5 10 -8 23 -5 12 2 39 6 60 9 31 3 36 1 28 -9 -9 -10 -6 -12 12
-9 13 3 30 -2 38 -9 16 -17 17 -17 124 -18 91 -2 179 5 194 15 6 3 11 0 11 -7
1 -10 4 -9 13 2 7 9 19 16 27 16 8 0 31 5 50 11 l35 10 -35 9 -35 9 50 5 c28
4 -42 6 -155 6 -113 0 -239 3 -280 7 -42 5 -78 6 -80 3z"/>
<path d="M835 3063 c-31 -8 -36 -18 -10 -19 13 -1 26 4 29 12 3 8 4 13 3 13
-1 -1 -11 -3 -22 -6z"/>
<path d="M958 3033 c7 -3 16 -2 19 1 4 3 -2 6 -13 5 -11 0 -14 -3 -6 -6z"/>
<path d="M1096 2975 c-9 -26 -7 -32 5 -12 6 10 9 21 6 23 -2 3 -7 -2 -11 -11z"/>
<path d="M940 2932 c0 -11 -3 -12 -13 -4 -24 21 -87 3 -87 -24 0 -8 -6 -15
-12 -16 -7 0 -17 -2 -23 -2 -25 -3 -35 -20 -33 -55 0 -21 -2 -43 -5 -49 -11
-16 4 -44 20 -38 8 3 12 2 9 -2 -7 -12 7 -30 24 -32 29 -4 39 0 34 14 -3 8 0
17 7 22 8 4 10 3 5 -4 -4 -7 -1 -12 6 -12 7 0 23 16 36 36 12 19 27 32 32 29
4 -3 10 3 13 12 3 15 6 14 14 -7 l10 -24 12 22 c6 12 18 22 26 22 8 0 15 5 15
10 0 6 9 10 20 10 20 0 40 27 40 53 0 16 -16 17 -37 4 -6 -4 -18 0 -26 8 -9 8
-21 15 -27 15 -6 0 -9 4 -6 9 3 5 -8 11 -24 13 -22 3 -30 0 -30 -10z"/>
<path d="M1637 2903 c-10 -9 -9 -23 2 -23 5 0 11 7 15 15 5 15 -5 20 -17 8z"/>
<path d="M1680 2885 c-11 -13 -10 -14 4 -9 9 3 16 10 16 15 0 13 -6 11 -20 -6z"/>
<path d="M310 2790 c8 -5 20 -10 25 -10 6 0 3 5 -5 10 -8 5 -19 10 -25 10 -5
0 -3 -5 5 -10z"/>
<path d="M410 2790 c0 -5 5 -10 11 -10 5 0 7 5 4 10 -3 6 -8 10 -11 10 -2 0
-4 -4 -4 -10z"/>
<path d="M916 2765 c-8 -22 -8 -22 8 -22 7 0 13 6 12 13 -3 22 -13 26 -20 9z"/>
<path d="M490 2760 c0 -5 5 -10 10 -10 6 0 10 5 10 10 0 6 -4 10 -10 10 -5 0
-10 -4 -10 -10z"/>
<path d="M950 2765 c0 -5 5 -17 10 -25 5 -8 10 -10 10 -5 0 6 -5 17 -10 25 -5
8 -10 11 -10 5z"/>
<path d="M1636 2741 c-3 -5 1 -11 9 -15 15 -6 29 7 18 18 -9 9 -21 8 -27 -3z"/>
<path d="M1575 2720 c-3 -5 -1 -10 4 -10 6 0 11 5 11 10 0 6 -2 10 -4 10 -3 0
-8 -4 -11 -10z"/>
<path d="M1180 2680 c-9 -6 -10 -10 -3 -10 6 0 15 5 18 10 8 12 4 12 -15 0z"/>
<path d="M430 2669 c0 -5 5 -7 10 -4 6 3 10 8 10 11 0 2 -4 4 -10 4 -5 0 -10
-5 -10 -11z"/>
<path d="M1080 2650 c-9 -6 -10 -10 -3 -10 6 0 15 5 18 10 8 12 4 12 -15 0z"/>
<path d="M1037 2561 c-4 -17 -3 -21 5 -13 5 5 8 16 6 23 -3 8 -7 3 -11 -10z"/>
<path d="M440 2529 c0 -5 5 -7 10 -4 6 3 10 8 10 11 0 2 -4 4 -10 4 -5 0 -10
-5 -10 -11z"/>
<path d="M517 2526 c-4 -9 2 -11 19 -8 20 4 23 1 18 -14 -5 -12 -4 -15 2 -9 5
5 13 13 17 16 5 4 -5 11 -21 17 -23 8 -32 7 -35 -2z"/>
</g>
</svg>
